<?xml version="1.0" encoding="UTF-8"?>
<svg id="Layer_1" data-name="Layer 1" xmlns="http://www.w3.org/2000/svg" version="1.1" viewBox="0 0 1000 148">
  <defs>
    <style>
      .cls-1 {
        fill: #1d6076;
      }

      .cls-1, .cls-2, .cls-3, .cls-4 {
        stroke-width: 0px;
      }

      .cls-2 {
        fill: #5ac9e9;
      }

      .cls-3 {
        fill: #84c198;
      }

      .cls-4 {
        fill: #fff;
      }
    </style>
  </defs>
  <circle class="cls-3" cx="74" cy="74" r="74"/>
  <polyline class="cls-2" points="56.2 80.9 73.3 98 92 73.5 79 57.1 55.2 80.9"/>
  <g>
    <path class="cls-1" d="M99.1,34.9c5.1-5.1,13.3-5.1,18.4,0,5.1,5.1,5.1,13.3,0,18.4"/>
    <polygon class="cls-1" points="45.3 115.3 32.9 118.6 36.2 106.2 45.3 115.3"/>
    <path class="cls-1" d="M111.2,95.3l-17.5-17.5,17.6-17.6c1.4-1.4,1.4-3.7,0-5,0,0-.1-.1-.2-.2h0s-6.8-6.8-6.8-6.8h0s0,0,0,0l-7-7h0c-1.4-1.3-3.6-1.3-5,0l-17.6,17.6-5.4-5.5c.8-6.3-1.3-12.8-6.1-17.6-5.4-5.4-12.9-7.3-19.8-5.7l7.9,7.9h0s-1.1,15.1-1.1,15.1l-15.2,1h0s-7.9-7.9-7.9-7.9c-1.5,6.9.4,14.4,5.7,19.7,4.8,4.8,11.4,6.8,17.6,6.1l5.4,5.4-15.3,15.3c-1.4,1.4-1.4,3.7,0,5,1.1,1.1,2.9,1.3,4.3.5l2.2,2.2c-.8,1.4-.6,3.1.5,4.2,1.1,1.1,2.9,1.3,4.2.5l2.2,2.2c-.8,1.4-.6,3.1.5,4.2,1.4,1.4,3.6,1.3,5,0l15.3-15.3,17.6,17.6c4.8,4.8,12.7,4.8,17.5,0l1.2-1.2c4.8-4.8,4.8-12.7,0-17.5ZM107.3,110c-3.1,3.1-8.1,3.1-11.2,0s-3.1-8.1,0-11.2c3.1-3.1,8.1-3.1,11.2,0,3.1,3.1,3.1,8.1,0,11.2Z"/>
  </g>
  <g>
    <path class="cls-4" d="M235.6,49.7h-39v15.6h35.8v12.8h-35.8v18.9h40.8v13.2h-55.8V36.6h54v13Z"/>
    <path class="cls-4" d="M275.1,56.7c2.6,1.4,4.6,3.5,6.2,6v-26h14.4v73.5h-13.8v-7.5c-2,3.2-4.3,5.6-6.9,7-2.6,1.5-5.8,2.2-9.7,2.2-6.4,0-11.7-2.6-16.1-7.7-4.3-5.1-6.5-11.7-6.5-19.8s2.1-16.6,6.4-21.9c4.3-5.3,10-8,17.2-8s6.2.7,8.8,2.2ZM278.6,95.5c2.1-3,3.1-6.9,3.1-11.6s-1.7-11.4-5-14.3c-2.1-1.7-4.5-2.6-7.2-2.6-4.2,0-7.2,1.6-9.2,4.7-1.9,3.1-2.9,7.1-2.9,11.7s1,9,3,12.1c2,3,5,4.5,9,4.5s7.1-1.5,9.2-4.5Z"/>
    <path class="cls-4" d="M320.8,55.8v32.8c0,3.1.4,5.4,1.1,7,1.3,2.8,3.8,4.1,7.6,4.1s8.1-2,9.9-5.9c.9-2.1,1.4-4.9,1.4-8.4v-29.6h14.4v54.4h-13.8v-7.7c-.1.2-.5.7-1,1.5-.5.8-1.2,1.6-1.9,2.2-2.2,2-4.4,3.4-6.4,4.1-2.1.7-4.5,1.1-7.3,1.1-8,0-13.4-2.9-16.2-8.7-1.6-3.2-2.3-7.9-2.3-14.1v-32.8h14.6Z"/>
    <path class="cls-4" d="M399.7,75.3c-.3-2-1-3.9-2.1-5.5-1.6-2.2-4.1-3.3-7.5-3.3-4.8,0-8.1,2.4-9.9,7.1-.9,2.5-1.4,5.9-1.4,10.1s.5,7.2,1.4,9.6c1.7,4.5,4.9,6.8,9.6,6.8s5.7-.9,7.1-2.7c1.4-1.8,2.3-4.1,2.6-7h14.5c-.3,4.3-1.9,8.4-4.7,12.3-4.5,6.2-11.1,9.3-19.8,9.3s-15.2-2.6-19.3-7.8c-4.1-5.2-6.2-11.9-6.2-20.2s2.3-16.6,6.8-21.8c4.6-5.2,10.9-7.8,18.9-7.8s12.4,1.5,16.8,4.6c4.3,3.1,6.9,8.5,7.7,16.2h-14.6Z"/>
    <path class="cls-4" d="M443.5,77.1c2.6-.3,4.5-.8,5.7-1.2,2-.9,3.1-2.2,3.1-4s-.8-3.8-2.4-4.6c-1.6-.8-3.9-1.3-6.9-1.3s-5.8.8-7.2,2.5c-1,1.2-1.7,2.9-2,5h-13.7c.3-4.8,1.6-8.7,4-11.7,3.8-4.8,10.3-7.2,19.5-7.2s11.3,1.2,16,3.5c4.6,2.4,7,6.8,7,13.4v25c0,1.7,0,3.8,0,6.3,0,1.9.4,3.1.8,3.8.5.7,1.2,1.2,2.1,1.6v2.1h-15.5c-.4-1.1-.7-2.1-.9-3.1-.2-1-.3-2.1-.4-3.3-2,2.1-4.3,3.9-6.8,5.4-3.1,1.8-6.6,2.6-10.4,2.6s-9-1.4-12.3-4.2c-3.2-2.8-4.8-6.8-4.8-12s2.6-11.5,7.8-14.5c2.9-1.6,7-2.8,12.6-3.5l4.9-.6ZM452.2,83.8c-.9.6-1.8,1-2.8,1.4-.9.4-2.2.7-3.8,1l-3.2.6c-3,.5-5.2,1.2-6.5,1.9-2.2,1.3-3.4,3.3-3.4,6s.7,4.2,2.1,5.3c1.4,1.1,3,1.6,5,1.6,3.1,0,6-.9,8.6-2.7,2.6-1.8,4-5.1,4.1-9.8v-5.3Z"/>
    <path class="cls-4" d="M471.2,66.4v-10.1h7.6v-15.2h14.1v15.2h8.8v10.1h-8.8v28.8c0,2.2.3,3.6.8,4.2.6.5,2.3.8,5.2.8s.9,0,1.4,0c.5,0,1,0,1.4,0v10.6l-6.7.2c-6.7.2-11.3-.9-13.8-3.5-1.6-1.6-2.4-4.1-2.4-7.5v-33.5h-7.6Z"/>
    <path class="cls-4" d="M544.2,56.9c3.8,1.7,6.9,4.4,9.4,8.1,2.2,3.2,3.7,7,4.3,11.3.4,2.5.5,6.1.5,10.8h-39.6c.2,5.5,2.1,9.3,5.7,11.5,2.2,1.4,4.8,2,7.8,2s5.9-.8,7.9-2.5c1.1-.9,2.1-2.1,2.9-3.7h14.5c-.4,3.2-2.1,6.5-5.3,9.8-4.9,5.3-11.7,7.9-20.5,7.9s-13.6-2.2-19.2-6.7c-5.5-4.5-8.3-11.7-8.3-21.8s2.5-16.7,7.5-21.7c5-5,11.5-7.5,19.5-7.5s9,.9,12.8,2.6ZM523,69.2c-2,2.1-3.3,4.9-3.8,8.4h24.5c-.3-3.8-1.5-6.6-3.8-8.6-2.3-2-5.1-2.9-8.4-2.9s-6.5,1-8.5,3.1Z"/>
    <path class="cls-4" d="M569.6,36.9l13.8,59.6,16.6-59.6h10.7l16.6,59.7,13.8-59.7h10.9l-19.3,73.4h-10.4l-16.9-60.8-17,60.8h-10.4l-19.2-73.4h10.8Z"/>
    <path class="cls-4" d="M695,62.1c4.7,4.6,7.1,11.3,7.1,20.3s-2.1,15.7-6.2,21.4c-4.2,5.6-10.6,8.4-19.4,8.4s-13.1-2.5-17.4-7.5c-4.3-5-6.4-11.6-6.4-20s2.3-16.1,6.8-21.5c4.5-5.3,10.6-8,18.3-8s12.6,2.3,17.4,6.9ZM689.4,97.6c2.2-4.5,3.3-9.5,3.3-15s-.8-9-2.4-12.2c-2.5-4.9-6.8-7.4-12.9-7.4s-9.4,2.1-11.9,6.3c-2.5,4.2-3.7,9.2-3.7,15.2s1.2,10.4,3.7,14.2c2.5,3.8,6.4,5.7,11.8,5.7s9.9-2.3,12.1-6.8Z"/>
    <path class="cls-4" d="M711.3,56.8h8.5v9.2c.7-1.8,2.4-4,5.1-6.6,2.7-2.6,5.9-3.9,9.4-3.9s.5,0,.8,0c.4,0,1.1,0,2,.2v9.5c-.5,0-1-.2-1.5-.2-.5,0-.9,0-1.5,0-4.5,0-8,1.5-10.4,4.4-2.4,2.9-3.6,6.3-3.6,10.1v30.8h-9v-53.5Z"/>
    <path class="cls-4" d="M742.9,36.9h8.6v42.6l23.1-22.7h11.5l-20.6,19.9,21.7,33.6h-11.5l-16.8-27.2-7.4,7.1v20.1h-8.6V36.9Z"/>
    <path class="cls-4" d="M796.4,40.4c2.1-3.1,6.1-4.6,12.1-4.6s1.1,0,1.7,0c.6,0,1.3,0,2,.2v8.2c-.9,0-1.6-.1-2-.1-.4,0-.8,0-1.2,0-2.8,0-4.4.7-4.9,2.1-.5,1.4-.8,5-.8,10.8h9v7.1h-9v46.1h-8.9v-46.1h-7.4v-7.1h7.4v-8.4c.1-3.7.8-6.5,1.9-8.2Z"/>
    <path class="cls-4" d="M857.3,62.1c4.7,4.6,7.1,11.3,7.1,20.3s-2.1,15.7-6.2,21.4c-4.2,5.6-10.6,8.4-19.4,8.4s-13.1-2.5-17.4-7.5c-4.3-5-6.4-11.6-6.4-20s2.3-16.1,6.8-21.5c4.5-5.3,10.6-8,18.3-8s12.6,2.3,17.4,6.9ZM851.7,97.6c2.2-4.5,3.3-9.5,3.3-15s-.8-9-2.4-12.2c-2.5-4.9-6.8-7.4-12.9-7.4s-9.4,2.1-11.9,6.3c-2.5,4.2-3.7,9.2-3.7,15.2s1.2,10.4,3.7,14.2c2.5,3.8,6.4,5.7,11.8,5.7s9.9-2.3,12.1-6.8Z"/>
    <path class="cls-4" d="M873.6,56.8h8.5v9.2c.7-1.8,2.4-4,5.1-6.6,2.7-2.6,5.9-3.9,9.4-3.9s.5,0,.8,0c.4,0,1.1,0,2,.2v9.5c-.5,0-1-.2-1.5-.2-.5,0-.9,0-1.5,0-4.5,0-8,1.5-10.4,4.4-2.4,2.9-3.6,6.3-3.6,10.1v30.8h-9v-53.5Z"/>
    <path class="cls-4" d="M940.7,59.6c3.8,2.9,6.1,8,6.8,15.1h-8.7c-.5-3.3-1.7-6-3.6-8.2-1.9-2.2-4.9-3.3-9.1-3.3s-9.8,2.8-12.3,8.4c-1.6,3.6-2.4,8.1-2.4,13.4s1.1,9.9,3.4,13.5c2.3,3.7,5.8,5.5,10.7,5.5s6.7-1.1,8.9-3.4c2.2-2.3,3.7-5.4,4.5-9.3h8.7c-1,7.1-3.5,12.3-7.5,15.6-4,3.3-9.1,4.9-15.3,4.9s-12.6-2.6-16.7-7.7c-4.2-5.1-6.2-11.5-6.2-19.2s2.3-16.7,6.8-21.9c4.6-5.2,10.4-7.8,17.4-7.8s10.9,1.5,14.7,4.4Z"/>
    <path class="cls-4" d="M987.5,58.2c3.5,1.8,6.2,4.1,8.1,6.9,1.8,2.7,3,5.8,3.6,9.4.5,2.5.8,6.4.8,11.8h-38.9c.2,5.4,1.4,9.8,3.8,13.1,2.4,3.3,6.1,4.9,11,4.9s8.4-1.6,11.1-4.7c1.6-1.8,2.7-3.9,3.3-6.3h8.8c-.2,2-1,4.2-2.3,6.6-1.3,2.4-2.8,4.4-4.4,5.9-2.7,2.7-6.1,4.5-10.1,5.4-2.1.5-4.6.8-7.3.8-6.6,0-12.2-2.4-16.8-7.3-4.6-4.8-6.9-11.6-6.9-20.3s2.3-15.6,6.9-20.9c4.6-5.4,10.7-8,18.2-8s7.4.9,11,2.7ZM990.8,79.2c-.4-3.9-1.2-7-2.5-9.3-2.4-4.3-6.5-6.5-12.2-6.5s-7.5,1.5-10.3,4.5c-2.8,3-4.2,6.8-4.4,11.4h29.5Z"/>
  </g>
</svg>